<?xml version="1.0" encoding="UTF-8" standalone="no"?><!DOCTYPE svg PUBLIC "-//W3C//DTD SVG 1.1//EN" "http://www.w3.org/Graphics/SVG/1.1/DTD/svg11.dtd"><svg width="100%" height="100%" viewBox="0 0 2134 1067" version="1.1" xmlns="http://www.w3.org/2000/svg" xmlns:xlink="http://www.w3.org/1999/xlink" xml:space="preserve" xmlns:serif="http://www.serif.com/" style="fill-rule:evenodd;clip-rule:evenodd;stroke-linejoin:round;stroke-miterlimit:2;"><g id="Layer1"><path d="M143.59,495.361l223.598,-387.284l341.372,0l-245.522,425.256l269.973,467.606l-341.372,0l-248.049,-429.634l0,-75.945Zm1622.555,-387.284l223.598,387.284l0,75.945l-248.049,429.634l-341.372,0l269.973,-467.606l-245.522,-425.256l341.372,0Z" style="fill:#fff;"/><path d="M143.59,495.361l223.598,-387.284l341.372,0l-245.522,425.256l269.973,467.606l-341.372,0l-248.049,-429.634l0,-75.945Zm8.333,2.233l0,71.479l244.527,423.533l322.127,-0l-262.756,-455.106c-1.489,-2.578 -1.489,-5.755 0,-8.333l238.305,-412.756l-322.127,0l-220.076,381.183Zm1614.222,-389.516l223.598,387.284l0,75.945l-248.049,429.634l-341.372,0l269.973,-467.606l-245.522,-425.256l341.372,0Zm-4.811,8.333l-322.127,0l238.305,412.756c1.489,2.578 1.489,5.755 0,8.333l-262.756,455.106l322.127,0l244.527,-423.533l-0,-71.479l-220.076,-381.183Z" style="fill:#3f3f3f;"/><path d="M143.59,495.361l248.049,-429.634l341.372,-0l-269.973,467.606l226.126,391.661l-297.526,0l-248.049,-429.634Zm1256.732,-429.634l341.372,-0l248.049,429.634l-248.049,429.634l-297.526,0l226.126,-391.661l-269.973,-467.606Z" style="fill:#fff;"/><path d="M143.59,495.361l248.049,-429.634l341.372,0l-269.973,467.606l226.126,391.661l-297.526,0l-248.049,-429.634Zm9.623,-0l243.238,421.3l278.281,-0l-218.909,-379.161c-1.489,-2.578 -1.489,-5.755 -0,-8.333l262.756,-455.106l-322.127,0l-243.238,421.3Zm1247.109,-429.634l341.372,-0l248.049,429.634l-248.049,429.634l-297.526,0l226.126,-391.661l-269.973,-467.606Zm14.434,8.333l262.756,455.106c1.489,2.578 1.489,5.755 0,8.333l-218.909,379.161l278.281,0l243.238,-421.3l-243.238,-421.3l-322.127,0Z" style="fill:#3f3f3f;"/><path d="M511.059,533.333l277.804,-481.171l555.608,-0l277.804,481.171l-277.804,481.171l-555.608,0l-277.804,-481.171Z" style="fill:#fff;"/><path d="M511.059,533.333l277.804,-481.171l555.608,-0l277.804,481.171l-277.804,481.171l-555.608,0l-277.804,-481.171Zm9.623,0l272.993,472.837l545.985,0l272.993,-472.837l-272.993,-472.837l-545.985,0l-272.993,472.837Z" style="fill:#3f3f3f;"/></g></svg>